<svg width="23" height="21" viewBox="0 0 23 21" fill="none" xmlns="http://www.w3.org/2000/svg">
<path d="M12.7208 2.40551L12.7206 2.40576L11.8741 3.35732L11.5005 3.77727L11.127 3.35732L10.2805 2.40576L10.2799 2.40514C8.28271 0.152585 5.09762 -0.169649 2.97664 1.80201C0.482456 4.1245 0.34506 8.32357 2.5848 10.8495L10.899 20.2148C10.899 20.2149 10.899 20.2149 10.8991 20.2149C11.2372 20.5955 11.7595 20.5955 12.0977 20.2149C12.0977 20.2149 12.0978 20.2149 12.0978 20.2148L20.4122 10.8493L20.4123 10.8492C22.6559 8.32335 22.5186 4.12461 20.0245 1.80213L12.7208 2.40551ZM12.7208 2.40551C14.7226 0.15233 17.9035 -0.169452 20.0243 1.80187L12.7208 2.40551Z" stroke="#101010"/>
</svg>
